<svg width="26" height="26" viewBox="0 0 26 26" fill="none" xmlns="http://www.w3.org/2000/svg">
<path d="M11.375 20.3125H22.75V21.9375H11.375V20.3125ZM5.82563 21.125L3.72938 23.2212L4.875 24.375L8.125 21.125L4.875 17.875L3.72125 19.0206L5.82563 21.125ZM11.375 12.1875H22.75V13.8125H11.375V12.1875ZM5.82563 13L3.72938 15.0962L4.875 16.25L8.125 13L4.875 9.75L3.72125 10.8956L5.82563 13ZM11.375 4.0625H22.75V5.6875H11.375V4.0625ZM5.82563 4.875L3.72938 6.97125L4.875 8.125L8.125 4.875L4.875 1.625L3.72125 2.77063L5.82563 4.875Z" fill="#70708F"/>
</svg>
