<?xml version="1.0" encoding="UTF-8"?>
<!DOCTYPE svg PUBLIC "-//W3C//DTD SVG 1.1//EN" "http://www.w3.org/Graphics/SVG/1.1/DTD/svg11.dtd">
<svg xmlns="http://www.w3.org/2000/svg" version="1.1" width="253px" height="265px" style="shape-rendering:geometricPrecision; text-rendering:geometricPrecision; image-rendering:optimizeQuality; fill-rule:evenodd; clip-rule:evenodd" xmlns:xlink="http://www.w3.org/1999/xlink">
<g><path style="opacity:0.991" fill="#0d0d0d" d="M 131.5,236.5 C 130.077,239.592 127.743,241.592 124.5,242.5C 72.6804,240.519 37.1804,215.519 18,167.5C 3.60243,113.682 18.7691,70.5153 63.5,38C 100.022,16.5509 137.355,15.0509 175.5,33.5C 175.833,33 176.167,32.5 176.5,32C 172.736,20.7651 176.736,15.7651 188.5,17C 190.667,17.8333 192.167,19.3333 193,21.5C 196.333,30.1667 199.667,38.8333 203,47.5C 203.931,51.4123 203.097,54.9123 200.5,58C 190.273,62.2978 179.773,65.7978 169,68.5C 160.789,66.4104 158.123,61.4104 161,53.5C 162.637,51.1898 164.804,49.6898 167.5,49C 138.721,34.1164 109.721,33.783 80.5,48C 42.0051,70.4913 25.5051,103.991 31,148.5C 43.482,197.3 74.982,223.133 125.5,226C 130.451,227.728 132.451,231.228 131.5,236.5 Z"/></g>
<g><path style="opacity:0.986" fill="#101010" d="M 207.5,66.5 C 211.077,66.2051 214.243,67.2051 217,69.5C 220.77,75.6034 224.103,81.9367 227,88.5C 229.009,96.154 226.175,100.821 218.5,102.5C 215.634,101.818 213.134,100.484 211,98.5C 207.922,92.0087 204.588,85.6754 201,79.5C 199.476,73.2151 201.642,68.8817 207.5,66.5 Z"/></g>
<g><path style="opacity:0.991" fill="#101010" d="M 76.5,99.5 C 95.616,97.4454 103.449,105.779 100,124.5C 98.8333,127 97,128.833 94.5,130C 97.7284,131.563 99.8951,134.063 101,137.5C 101.839,142.921 101.506,148.254 100,153.5C 97.6351,156.869 94.4685,159.036 90.5,160C 81.1303,160.732 71.7969,160.398 62.5,159C 60.6013,154.822 59.9347,150.322 60.5,145.5C 68.5559,145.802 76.5559,145.469 84.5,144.5C 85.7691,142.305 85.7691,140.139 84.5,138C 78.2041,136.988 71.8708,136.488 65.5,136.5C 65.5,132.167 65.5,127.833 65.5,123.5C 71.5652,123.739 77.5652,123.239 83.5,122C 84.5762,120.274 84.7429,118.441 84,116.5C 76.5871,115.519 69.0871,115.186 61.5,115.5C 61.5,110.833 61.5,106.167 61.5,101.5C 66.7105,101.392 71.7105,100.725 76.5,99.5 Z"/></g>
<g><path style="opacity:0.992" fill="#121212" d="M 120.5,99.5 C 129,98.934 137.333,99.7674 145.5,102C 148.106,103.938 149.939,106.438 151,109.5C 152.589,122.443 152.922,135.443 152,148.5C 151.004,154.159 147.838,157.993 142.5,160C 134.167,160.667 125.833,160.667 117.5,160C 112.765,158.932 109.598,156.099 108,151.5C 106.414,138.89 106.08,126.224 107,113.5C 108.347,105.655 112.847,100.988 120.5,99.5 Z M 124.5,114.5 C 128.673,113.956 132.506,114.623 136,116.5C 136.667,125.833 136.667,135.167 136,144.5C 132.817,146.523 129.317,147.023 125.5,146C 124.061,145.009 123.061,143.676 122.5,142C 123.179,132.834 123.846,123.667 124.5,114.5 Z"/></g>
<g><path style="opacity:0.992" fill="#0f0f0f" d="M 234.5,124.5 C 234.157,126.483 234.824,127.817 236.5,128.5C 236.5,131.5 236.5,134.5 236.5,137.5C 234.656,139.279 233.99,141.612 234.5,144.5C 234.298,154.87 229.298,158.37 219.5,155C 216.833,153 215.5,150.333 215.5,147C 215.983,139.105 216.816,131.272 218,123.5C 221.308,119.673 225.474,118.506 230.5,120C 232.384,121.049 233.718,122.549 234.5,124.5 Z"/></g>
<g><path style="opacity:0.984" fill="#151515" d="M 183.5,123.5 C 185.604,126.003 185.937,128.67 184.5,131.5C 180.486,131.334 176.486,131.501 172.5,132C 171.62,133.356 171.286,134.856 171.5,136.5C 185.69,135.521 190.857,141.854 187,155.5C 185.387,157.777 183.22,159.277 180.5,160C 174.478,160.575 168.478,160.409 162.5,159.5C 162.183,156.428 162.516,153.428 163.5,150.5C 167.777,151.606 172.11,151.772 176.5,151C 178.592,150.047 178.925,148.714 177.5,147C 163.581,147.342 158.747,140.842 163,127.5C 164.731,125.383 166.898,123.883 169.5,123C 174.22,122.283 178.886,122.45 183.5,123.5 Z"/></g>
<g><path style="opacity:0.529" fill="#6e6e6e" d="M 183.5,123.5 C 184.5,123.5 185.5,123.5 186.5,123.5C 186.817,126.572 186.484,129.572 185.5,132.5C 184.893,132.376 184.56,132.043 184.5,131.5C 185.937,128.67 185.604,126.003 183.5,123.5 Z"/></g>
<g><path style="opacity:1" fill="#5c5c5c" d="M 234.5,124.5 C 236.176,125.183 236.843,126.517 236.5,128.5C 234.824,127.817 234.157,126.483 234.5,124.5 Z"/></g>
<g><path style="opacity:1" fill="#8e8e8e" d="M 236.5,137.5 C 237.01,140.388 236.344,142.721 234.5,144.5C 233.99,141.612 234.656,139.279 236.5,137.5 Z"/></g>
<g><path style="opacity:0.987" fill="#111111" d="M 211.5,171.5 C 219.317,171.815 223.151,175.815 223,183.5C 219.033,191.271 214.2,198.438 208.5,205C 198.058,208.224 193.224,204.39 194,193.5C 198.496,187.844 202.496,181.844 206,175.5C 207.812,174.023 209.645,172.69 211.5,171.5 Z"/></g>
<g><path style="opacity:0.525" fill="#4f4f4f" d="M 148.5,183.5 C 154.653,182.347 160.986,182.18 167.5,183C 161.216,184.829 154.882,184.996 148.5,183.5 Z"/></g>
<g><path style="opacity:0.987" fill="#0f0f0f" d="M 171.5,211.5 C 182.59,211.241 186.257,216.241 182.5,226.5C 176.275,230.78 169.609,234.28 162.5,237C 151.611,238.451 147.445,233.951 150,223.5C 151.167,222.333 152.333,221.167 153.5,220C 159.954,217.938 165.954,215.104 171.5,211.5 Z"/></g>
<g><path style="opacity:0.795" fill="#fbfbfb" d="M 124.5,242.5 C 127.743,241.592 130.077,239.592 131.5,236.5C 135.91,235.563 140.243,236.063 144.5,238C 148.5,238.333 152.5,238.667 156.5,239C 155.663,240.011 155.33,241.178 155.5,242.5C 145.167,242.5 134.833,242.5 124.5,242.5 Z"/></g>
<g><path style="opacity:0.187" fill="#fefffe" d="M 13.5,239.5 C 14.2674,240.172 14.9341,241.005 15.5,242C 13.9387,242.188 13.272,241.355 13.5,239.5 Z"/></g>
</svg>
